<mxfile host="app.diagrams.net" modified="2021-12-18T02:09:05.860Z" agent="5.0 (Windows)" etag="Wk1n24EQTgxQqTKKo6ss" version="16.0.0" type="github">
  <diagram id="HTHx7qyEVwPxQpaGQq7U" name="Page-1">
    <mxGraphModel dx="971" dy="128" grid="1" gridSize="10" guides="1" tooltips="1" connect="1" arrows="1" fold="1" page="0" pageScale="1" pageWidth="850" pageHeight="1100" math="0" shadow="0">
      <root>
        <mxCell id="0" />
        <mxCell id="1" parent="0" />
        <mxCell id="KCreCxjm3fWHQbNUM_jh-14" value="" style="shape=trapezoid;perimeter=trapezoidPerimeter;whiteSpace=wrap;html=1;fixedSize=1;fillColor=#666666;" parent="1" vertex="1">
          <mxGeometry x="190" y="580" width="460" height="20" as="geometry" />
        </mxCell>
        <mxCell id="KCreCxjm3fWHQbNUM_jh-18" value="" style="shape=trapezoid;perimeter=trapezoidPerimeter;whiteSpace=wrap;html=1;fixedSize=1;fillColor=#666666;size=50;" parent="1" vertex="1">
          <mxGeometry x="280" y="560" width="280" height="40" as="geometry" />
        </mxCell>
        <mxCell id="KCreCxjm3fWHQbNUM_jh-15" value="" style="shape=trapezoid;perimeter=trapezoidPerimeter;whiteSpace=wrap;html=1;fixedSize=1;size=12;" parent="1" vertex="1">
          <mxGeometry x="200" y="588" width="440" height="12" as="geometry" />
        </mxCell>
        <mxCell id="KCreCxjm3fWHQbNUM_jh-21" value="" style="shape=trapezoid;perimeter=trapezoidPerimeter;whiteSpace=wrap;html=1;fixedSize=1;size=38.00000000000006;" parent="1" vertex="1">
          <mxGeometry x="290" y="570" width="260" height="30" as="geometry" />
        </mxCell>
        <mxCell id="KCreCxjm3fWHQbNUM_jh-20" value="" style="shape=trapezoid;perimeter=trapezoidPerimeter;whiteSpace=wrap;html=1;fixedSize=1;fillColor=#666666;size=25.000000000000057;" parent="1" vertex="1">
          <mxGeometry x="310" y="580" width="220" height="20" as="geometry" />
        </mxCell>
      </root>
    </mxGraphModel>
  </diagram>
</mxfile>
